<svg xmlns="http://www.w3.org/2000/svg" xmlns:xlink="http://www.w3.org/1999/xlink" width="335.662" height="201.893" viewBox="0 0 335.662 201.893">
  <defs>
    <linearGradient id="linear-gradient" x2="0.784" y2="0.848" gradientUnits="objectBoundingBox">
      <stop offset="0" stop-color="#00ffdc"/>
      <stop offset="1" stop-color="#0098af"/>
    </linearGradient>
    <linearGradient id="linear-gradient-2" x1="0" y1="0" x2="1.475" y2="1" xlink:href="#linear-gradient"/>
    <linearGradient id="linear-gradient-3" x1="0.242" y1="0.276" x2="0.873" y2="0.877" xlink:href="#linear-gradient"/>
  </defs>
  <g id="undraw_sign_in_e6hj" transform="translate(0 0)">
    <path id="Path_53" data-name="Path 53" d="M85.677,416.035l19.8-28.444L85.667,419.129l-.012,3.236q-2.118-.018-4.192-.138c-.006-.735,1.676-41.165,1.6-41.9.1-.028.152-3.824.191-3.99L62.578,345.259l20.7,28.141.062.832,1.228-31.412L66.794,310.653,84.712,337.3c.007-.427.848-64.923.856-65.321.005.211.391,51.325.394,51.541l17-20.574-17.019,25-.087,28.113,15.778-27.186C81.947,368.515,86.3,354.642,85.8,375.82l22.919-37.854L85.782,381.274Z" transform="translate(-62.473 -226.592)" fill="#d0cde1"/>
    <path id="Path_54" data-name="Path 54" d="M1085.775,613.611l8.25-11.853-8.254,13.142,0,1.349q-.882-.007-1.747-.057c0-.306.7-17.154.669-17.459.041-.012.063-1.594.08-1.663l-8.617-12.953,8.628,11.727.026.347.512-13.09-7.408-13.4,7.467,11.1c0-.178.353-27.055.357-27.221,0,.088.163,21.388.164,21.478l7.085-8.574-7.093,10.416-.036,11.715,6.575-11.329c-8.206,16.521-6.39,10.74-6.6,19.566l9.551-15.775-9.559,18.047Z" transform="translate(-759.716 -420.307)" fill="#d0cde1"/>
    <ellipse id="Ellipse_8" data-name="Ellipse 8" cx="167.282" cy="6.554" rx="167.282" ry="6.554" transform="translate(0 188.785)" fill="#d0cde1"/>
    <rect id="Rectangle_16" data-name="Rectangle 16" width="191.001" height="113.874" transform="translate(57.425 77.409)" fill="#3f3d56"/>
    <path id="Path_55" data-name="Path 55" d="M293.512,374.581a45.676,45.676,0,0,1-45.665,44.932c-.537,0-1.07-.009-1.6-.028v-44.9Z" transform="translate(-188.817 -297.172)" fill="url(#linear-gradient)"/>
    <path id="Path_56" data-name="Path 56" d="M542.138,725.482H523.972a9.678,9.678,0,0,1,18.166,0Z" transform="translate(-379.869 -534.199)" fill="#00ffdc"/>
    <path id="Path_57" data-name="Path 57" d="M817.986,550.721v38.356a19.2,19.2,0,0,1,0-38.356Z" transform="translate(-569.56 -418.34)" fill="url(#linear-gradient-2)"/>
    <rect id="Rectangle_17" data-name="Rectangle 17" width="131.748" height="11.255" rx="5.627" transform="translate(87.217 118.788)" fill="#fff"/>
    <rect id="Rectangle_18" data-name="Rectangle 18" width="131.748" height="11.255" rx="5.627" transform="translate(87.217 140.966)" fill="#fff"/>
    <rect id="Rectangle_19" data-name="Rectangle 19" width="46.191" height="11.255" rx="5.627" transform="translate(172.774 163.145)" fill="#fff"/>
    <path id="Path_58" data-name="Path 58" d="M942.431,238.653a9.675,9.675,0,0,1,5.544,8.754c.292,6.711-1.459,25.385-1.459,25.385s6.419,9.337,1.459,11.963-5.544-10.5-5.544-10.5l-5.836-27.72S940.1,238.361,942.431,238.653Z" transform="translate(-663.715 -203.661)" fill="#a0616a"/>
    <path id="Path_59" data-name="Path 59" d="M754.207,223.339s-12.547,8.17-13.13,1.751,3.793-31.513,3.793-31.513.584-10.8,6.711-8.17-1.751,11.671-1.751,11.671l.875,20.425,5.836-.292Z" transform="translate(-529.18 -166.755)" fill="#a0616a"/>
    <path id="Path_60" data-name="Path 60" d="M767.211,319.565s-38.516-14.3-36.473,2.334S742.7,359.54,742.7,359.54l3.5,5.544H753.5l-4.669-30.054s16.632,9.337,21.592,7.878c0,0,6.419,42.893,8.754,46.1s6.419,42.017,6.419,42.017l3.793,4.669h7.295V370.044s12.547-40.85,2.918-42.893S767.211,319.565,767.211,319.565Z" transform="translate(-522.051 -255.395)" fill="#2f2e41"/>
    <path id="Path_61" data-name="Path 61" d="M728.53,462.714s-1.751-3.21-4.669,0-9.921,7-9.921,7-15.173,3.5-2.918,6.419,13.714,0,13.714,0,2.042.584,3.793,1.167,13.13-1.459,13.13-3.21-3.863-12.213-5.433-10.629S728.53,462.714,728.53,462.714Z" transform="translate(-505.254 -356.818)" fill="#2f2e41"/>
    <path id="Path_62" data-name="Path 62" d="M880.215,689.032s-4.3-3.543-5.315-2.531-6.327,7.845-6.327,7.845S854.4,705.229,867.308,707s12.148-3.037,12.148-3.037h4.049c.506,0,7.339-3.037,7.086-4.3s-3.29-11.584-4.3-10.853S880.215,689.032,880.215,689.032Z" transform="translate(-612.32 -511.619)" fill="#2f2e41"/>
    <circle id="Ellipse_9" data-name="Ellipse 9" cx="9.921" cy="9.921" r="9.921" transform="translate(218.9 4.063)" fill="#a0616a"/>
    <path id="Path_63" data-name="Path 63" d="M804.353,167.615s7.586,6.419,12.839,6.419S809.605,186,809.605,186l-11.38-10.213Z" transform="translate(-568.53 -154.799)" fill="#a0616a"/>
    <path id="Path_64" data-name="Path 64" d="M789.584,186.52l-.227-2.3s5.771-10.248,7.522-11.123a7.244,7.244,0,0,1,2.918-.875s5.836-6.127,12.255-2.918,21.592,23.635,21.592,23.635-10.8.875-9.337,9.337c0,0,10.8,27.72,7.878,28.011s-11.671-1.751-20.717,2.334-13.13,1.459-13.13,1.459l-4.669-15.173s-8.754-4.96-8.462-9.337l-12.692,5.69,1.167-10.8,7.732-8.9S779.956,194.4,789.584,186.52Z" transform="translate(-550.844 -155.322)" fill="url(#linear-gradient-3)"/>
    <path id="Path_65" data-name="Path 65" d="M755.229,141.606a3.663,3.663,0,0,1-1.441.981,1.257,1.257,0,0,1-1.5-.578l.419-.546-1.258-.781.548-.643-1.013-1.1.8-.634-1.522-1.089c1.973-3.219,4.106-6.479,7.221-8.613s7.467-2.892,10.657-.874a11.652,11.652,0,0,1,3.766,4.432c1.887,3.461,3.551,6.835,3.8,10.77-1.185-1.154-2.916-1.8-4.1-2.959a8.882,8.882,0,0,0-1.769-1.448,14.8,14.8,0,0,0-4.111-1.076,6.177,6.177,0,0,1-2.807-1.543c-1.05-.895-1.093-.549-2.154.459Q758,138.986,755.229,141.606Z" transform="translate(-535.534 -126.55)" fill="#2f2e41"/>
  </g>
</svg>
