<svg xmlns="http://www.w3.org/2000/svg" xmlns:xlink="http://www.w3.org/1999/xlink" width="328" height="255.937" viewBox="0 0 328 255.937">
  <defs>
    <linearGradient id="linear-gradient" x2="1" y2="1" gradientUnits="objectBoundingBox">
      <stop offset="0" stop-color="#00ffdc"/>
      <stop offset="1" stop-color="#0098af"/>
    </linearGradient>
    <linearGradient id="linear-gradient-3" x2="0.91" y2="1" xlink:href="#linear-gradient"/>
    <linearGradient id="linear-gradient-4" x1="0.231" y1="0.146" x2="0.885" y2="1" xlink:href="#linear-gradient"/>
  </defs>
  <g id="undraw_next_option_2ajo" transform="translate(-0.001)">
    <rect id="Rectangle_21" data-name="Rectangle 21" width="30.513" height="248.153" transform="matrix(0.926, -0.379, 0.379, 0.926, 48.959, 19.992)" fill="#d0cde1"/>
    <rect id="Rectangle_22" data-name="Rectangle 22" width="30.513" height="237.657" transform="matrix(0.926, -0.379, 0.379, 0.926, 0.001, 26.282)" fill="#d0cde1"/>
    <rect id="Rectangle_23" data-name="Rectangle 23" width="30.513" height="248.153" transform="matrix(0.926, -0.379, 0.379, 0.926, 103.758, 12.831)" fill="#d0cde1"/>
    <ellipse id="Ellipse_10" data-name="Ellipse 10" cx="90.294" cy="15.101" rx="90.294" ry="15.101" transform="translate(61.478 225.735)" fill="#3f3d56"/>
    <path id="Path_66" data-name="Path 66" d="M475.432,298.958l-.68-.208L220.917,221.326l.7-.349,174.252-87.016.137.284Zm-252.84-77.773,251.66,76.762L395.581,134.8Z" transform="translate(-175.121 -104.335)" fill="#3f3d56"/>
    <rect id="Rectangle_24" data-name="Rectangle 24" width="63.206" height="60.404" transform="translate(264.795 160.35)" fill="url(#linear-gradient)"/>
    <path id="Path_84" data-name="Path 84" d="M0,0H63.206V60.4H0Z" transform="translate(197.23)" fill="url(#linear-gradient)"/>
    <rect id="Rectangle_26" data-name="Rectangle 26" width="63.206" height="60.404" transform="translate(18.822 86.558)" fill="url(#linear-gradient-3)"/>
    <path id="Path_67" data-name="Path 67" d="M500.085,287.309h-1.868l-7.94,28.8s-.156,19.149,1.712,28.489c0,0,3.114-4.048,5.293-4.048s4.2-20.394,4.2-20.394S510.048,291.045,500.085,287.309Z" transform="translate(-360.612 -209.936)" fill="#3f3d56"/>
    <path id="Path_68" data-name="Path 68" d="M648.676,464.309s-4.982,14.011-.311,14.945,7.161-10.9,5.916-12.454S648.676,464.309,648.676,464.309Z" transform="translate(-468.104 -331.826)" fill="#a0616a"/>
    <path id="Path_69" data-name="Path 69" d="M494.157,453.96s1.4,14.8,6.028,13.679,1.89-12.9.1-13.788S494.157,453.96,494.157,453.96Z" transform="translate(-363.286 -324.372)" fill="#a0616a"/>
    <path id="Path_70" data-name="Path 70" d="M526.267,727.111s2.18,10.586-1.557,13.388,1.245,8.718,1.245,8.718l11.832-12.454s-4.982-7.784-4.67-12.454Z" transform="translate(-383.369 -510.873)" fill="#a0616a"/>
    <path id="Path_71" data-name="Path 71" d="M515.506,725.5l-1.245,8.407-.311,5.916,6.85-.623.934-12.143Z" transform="translate(-353.926 -499.61)" fill="#a0616a"/>
    <path id="Path_72" data-name="Path 72" d="M500.272,459.778a5.527,5.527,0,0,0-3.528,5.459c.311,4.048,1.245,16.813,1.245,16.813s-2.8,27.4,0,36.74,8.1,28.022,8.1,28.022,8.1,1.557,9.963-4.359c0,0-.311-20.238-3.736-24.6s-.934-5.6-.623-6.227,1.245-1.557,1.245-2.491.311-4.359.311-5.6a4.766,4.766,0,0,1,.311-2.8c.623-1.868,1.245-2.491,1.245-2.8s5.293-16.813,5.293-16.813l6.85,38.3s-1.557,37.674-.934,37.674,7.473,2.491,9.963,0c0,0,6.227-32.381,4.982-34.25s-1.557-2.179-1.245-4.048.934-2.8.311-3.736-1.557-4.048-.623-4.982,1.245-5.293,1.245-5.293,5.293-30.513,1.868-34.872S500.272,459.778,500.272,459.778Z" transform="translate(-365.055 -328.706)" fill="#2f2e41"/>
    <path id="Path_73" data-name="Path 73" d="M504.9,762.3s-3.736-4.67-4.982-2.491-3.114,5.6-3.114,5.6-14.011,12.143-6.227,12.454a17.422,17.422,0,0,0,12.766-5.293s1.245-6.227,4.982-6.227l.623,1.557,6.85-4.359s-.965-8.267-3.752-8.026Z" transform="translate(-359.199 -532.364)" fill="#2f2e41"/>
    <path id="Path_74" data-name="Path 74" d="M582.866,804.248s8.1-3.114,9.029,0a18.432,18.432,0,0,1,.934,4.67s6.85,11.209,0,11.832-9.964-3.736-9.964-3.736.934-5.293,0-5.916S582.866,804.248,582.866,804.248Z" transform="translate(-424.088 -564.969)" fill="#2f2e41"/>
    <circle id="Ellipse_11" data-name="Ellipse 11" cx="10.898" cy="10.898" r="10.898" transform="translate(153.484 45.614)" fill="#a0616a"/>
    <path id="Path_75" data-name="Path 75" d="M570.963,228.309l-2.18,12.143,15.257,3.736s-3.581-8.874.311-12.766C585.336,230.438,570.963,228.309,570.963,228.309Z" transform="translate(-414.677 -169.307)" fill="#a0616a"/>
    <path id="Path_76" data-name="Path 76" d="M525.4,250.694a1.987,1.987,0,0,0-1.551,1.437,8.291,8.291,0,0,1-1.245,2.491s-14.634,6.85-14.634,7.784,5.916,20.861,5.916,20.861.311,12.454-2.179,15.257-4.982,13.077-4.359,14.011-4.359,3.114-2.491,4.67,28.022,16.5,43.59,9.652a21.321,21.321,0,0,0,0-4.67c-.311-1.868,1.868-8.1,1.245-10.275s0-24.6,0-24.6l3.209-26.545a2.16,2.16,0,0,0-1.516-2.328c-3.589-1.091-11.911-5.556-13.058-4.6C536.837,255.084,527.569,254.239,525.4,250.694Z" transform="translate(-370.36 -184.722)" fill="url(#linear-gradient-4)"/>
    <path id="Path_77" data-name="Path 77" d="M642.52,274.948l.02-.008a2.159,2.159,0,0,1,2.547.73c1.929,2.64,5.99,8.574,6.462,12.355.623,4.982,2.491,18.37,2.179,20.238s-.623,2.179,0,3.114.311.623,0,1.557-4.048,26.777-4.048,26.777-2.491-5.6-7.161-3.736c0,0,.623-4.982,0-6.539s-1.245-2.491-.623-3.736,0-13.388-.311-14.634,0-7.784,0-7.784l-2.8-12.766Z" transform="translate(-462.882 -201.311)" fill="#3f3d56"/>
    <path id="Path_78" data-name="Path 78" d="M571.933,191.446l.368-2.566c.086-.6.436-1.384,1.018-1.222.495.138,1.573.562,1.754.434.676-.479,1.7.359,2.41-.067.3-.178.492-.56.838-.586a.955.955,0,0,1,.615.279,4.188,4.188,0,0,0,1.593.865,1.714,1.714,0,0,0,1.677-.457.89.89,0,0,1,.3-.284.666.666,0,0,1,.426.02l1.816.495a6.98,6.98,0,0,0-.934-5.747,11.559,11.559,0,0,0-2.646-2.591q-1.687-1.284-3.483-2.415a11.312,11.312,0,0,0-4.231-1.841,4.519,4.519,0,0,0-4.211,1.4,2.712,2.712,0,0,1-.975-1.317,1,1,0,0,0,.065,1.53l-1.536-.981c-.432.453.412,1.276.044,1.782a.939.939,0,0,1-.414.27,7.042,7.042,0,0,0-2.253,1.418,8.4,8.4,0,0,0-1.774,3.268c-.915,2.626-1.581,5.638-.28,8.1.147.279,2.094,4.879,2.353,5.058.877.606.306-.861.934,0,.493.675.4-1.909,1.132-1.342a1.825,1.825,0,0,0,1.986.089c.3-.21.206-1.379.042-2.453a1.265,1.265,0,0,1,1.538-1.423A5.487,5.487,0,0,0,571.933,191.446Z" transform="translate(-409.586 -133.079)" fill="#2f2e41"/>
    <path id="Path_79" data-name="Path 79" d="M641.464,305.92l2.755,31.1S638.4,310.937,641.464,305.92Z" transform="translate(-464.113 -222.753)" opacity="0.1"/>
    <path id="Path_80" data-name="Path 80" d="M716.165,74.307l16.191,7.161-16.191,6.85Z" transform="translate(-493.181 -51.171)" fill="#3f3d56"/>
    <path id="Path_81" data-name="Path 81" d="M206.3,385.277H158.35V337.328H206.3Zm-47.283-.666h46.617V337.994H159.016Z" transform="translate(-132.035 -244.382)" fill="#d0cde1"/>
    <rect id="Rectangle_27" data-name="Rectangle 27" width="29.302" height="2.673" transform="translate(35.638 108.112)" fill="#3f3d56"/>
    <rect id="Rectangle_28" data-name="Rectangle 28" width="29.302" height="2.673" transform="translate(35.638 115.585)" fill="#3f3d56"/>
    <rect id="Rectangle_29" data-name="Rectangle 29" width="29.302" height="2.673" transform="translate(35.638 123.057)" fill="#3f3d56"/>
    <path id="Path_82" data-name="Path 82" d="M997.164,637.5h-46.7V614.766h46.7Zm-46.081-.623h45.458V615.389H951.083Z" transform="translate(-677.515 -435.437)" fill="#d0cde1"/>
    <circle id="Ellipse_12" data-name="Ellipse 12" cx="3.425" cy="3.425" r="3.425" transform="translate(282.285 187.269)" fill="#3f3d56"/>
    <circle id="Ellipse_13" data-name="Ellipse 13" cx="3.425" cy="3.425" r="3.425" transform="translate(292.871 187.269)" fill="#3f3d56"/>
    <circle id="Ellipse_14" data-name="Ellipse 14" cx="3.425" cy="3.425" r="3.425" transform="translate(303.457 187.269)" fill="#3f3d56"/>
    <path id="Path_83" data-name="Path 83" d="M780.488,122.038h-46.7V99.309h46.7Zm-46.081-.623h45.458V99.932H734.407Z" transform="translate(-528.303 -80.472)" fill="#d0cde1"/>
  </g>
</svg>
