<svg xmlns="http://www.w3.org/2000/svg" width="26" height="26" viewBox="0 0 26 26">
  <g id="create-24px" transform="translate(2)">
    <g id="Path_42" data-name="Path 42" transform="translate(-2)" fill="none">
      <path d="M13,0A13,13,0,1,1,0,13,13,13,0,0,1,13,0Z" stroke="none"/>
      <path d="M 13 1 C 9.794679641723633 1 6.781219482421875 2.248220443725586 4.514720916748047 4.514720916748047 C 2.248220443725586 6.781219482421875 1 9.794679641723633 1 13 C 1 16.20532035827637 2.248220443725586 19.21878051757812 4.514720916748047 21.48527908325195 C 6.781219482421875 23.75177955627441 9.794679641723633 25 13 25 C 16.20532035827637 25 19.21878051757812 23.75177955627441 21.48527908325195 21.48527908325195 C 23.75177955627441 19.21878051757812 25 16.20532035827637 25 13 C 25 9.794679641723633 23.75177955627441 6.781219482421875 21.48527908325195 4.514720916748047 C 19.21878051757812 2.248220443725586 16.20532035827637 1 13 1 M 13 0 C 20.1796989440918 0 26 5.82029914855957 26 13 C 26 20.1796989440918 20.1796989440918 26 13 26 C 5.82029914855957 26 0 20.1796989440918 0 13 C 0 5.82029914855957 5.82029914855957 0 13 0 Z" stroke="none" fill="#05d9bc"/>
    </g>
    <path id="Path_41" data-name="Path 41" d="M3,16.609v3.581H6.581L17.144,9.628,13.563,6.047ZM19.914,6.858a.951.951,0,0,0,0-1.347L17.679,3.277a.951.951,0,0,0-1.347,0L14.585,5.025l3.581,3.581,1.748-1.748Z" transform="translate(-0.135 0.865)" fill="#05d9bc"/>
  </g>
</svg>
